<mxfile host="app.diagrams.net" modified="2023-09-26T11:05:34.472Z" agent="Mozilla/5.0 (Windows NT 10.0; Win64; x64) AppleWebKit/537.36 (KHTML, like Gecko) Chrome/117.0.0.0 Safari/537.36" etag="grjzGljPZI7irfrpzk0D" version="21.8.2" type="device">
  <diagram name="Страница — 1" id="AAf0fZNomWj9j-Oj21tu">
    <mxGraphModel dx="954" dy="662" grid="1" gridSize="10" guides="1" tooltips="1" connect="1" arrows="1" fold="1" page="1" pageScale="1" pageWidth="827" pageHeight="1169" math="0" shadow="0">
      <root>
        <mxCell id="0" />
        <mxCell id="1" parent="0" />
        <mxCell id="qiT8Si7cKrjDfr931JP9-1" value="" style="ellipse;whiteSpace=wrap;html=1;aspect=fixed;" vertex="1" parent="1">
          <mxGeometry x="374" y="260" width="126" height="126" as="geometry" />
        </mxCell>
        <mxCell id="qiT8Si7cKrjDfr931JP9-2" value="" style="ellipse;whiteSpace=wrap;html=1;aspect=fixed;" vertex="1" parent="1">
          <mxGeometry x="680" y="283" width="80" height="80" as="geometry" />
        </mxCell>
        <mxCell id="qiT8Si7cKrjDfr931JP9-3" value="" style="ellipse;whiteSpace=wrap;html=1;aspect=fixed;" vertex="1" parent="1">
          <mxGeometry x="140" y="283" width="80" height="80" as="geometry" />
        </mxCell>
        <mxCell id="qiT8Si7cKrjDfr931JP9-4" value="" style="ellipse;whiteSpace=wrap;html=1;aspect=fixed;" vertex="1" parent="1">
          <mxGeometry x="397" y="490" width="80" height="80" as="geometry" />
        </mxCell>
        <mxCell id="qiT8Si7cKrjDfr931JP9-5" value="Start" style="text;html=1;strokeColor=none;fillColor=none;align=center;verticalAlign=middle;whiteSpace=wrap;rounded=0;" vertex="1" parent="1">
          <mxGeometry x="150" y="308" width="60" height="30" as="geometry" />
        </mxCell>
        <mxCell id="qiT8Si7cKrjDfr931JP9-6" value="Error" style="text;html=1;strokeColor=none;fillColor=none;align=center;verticalAlign=middle;whiteSpace=wrap;rounded=0;" vertex="1" parent="1">
          <mxGeometry x="407" y="515" width="60" height="30" as="geometry" />
        </mxCell>
        <mxCell id="qiT8Si7cKrjDfr931JP9-7" value="Finish" style="text;html=1;strokeColor=none;fillColor=none;align=center;verticalAlign=middle;whiteSpace=wrap;rounded=0;" vertex="1" parent="1">
          <mxGeometry x="690" y="308" width="60" height="30" as="geometry" />
        </mxCell>
        <mxCell id="qiT8Si7cKrjDfr931JP9-9" value="" style="endArrow=classic;html=1;rounded=0;entryX=0;entryY=0.5;entryDx=0;entryDy=0;exitX=0.984;exitY=0.407;exitDx=0;exitDy=0;exitPerimeter=0;" edge="1" parent="1" source="qiT8Si7cKrjDfr931JP9-1" target="qiT8Si7cKrjDfr931JP9-2">
          <mxGeometry width="50" height="50" relative="1" as="geometry">
            <mxPoint x="390" y="370" as="sourcePoint" />
            <mxPoint x="440" y="320" as="targetPoint" />
          </mxGeometry>
        </mxCell>
        <mxCell id="qiT8Si7cKrjDfr931JP9-10" value="" style="endArrow=classic;html=1;rounded=0;entryX=0.5;entryY=0;entryDx=0;entryDy=0;exitX=0.5;exitY=1;exitDx=0;exitDy=0;" edge="1" parent="1" source="qiT8Si7cKrjDfr931JP9-1" target="qiT8Si7cKrjDfr931JP9-4">
          <mxGeometry width="50" height="50" relative="1" as="geometry">
            <mxPoint x="390" y="370" as="sourcePoint" />
            <mxPoint x="440" y="320" as="targetPoint" />
          </mxGeometry>
        </mxCell>
        <mxCell id="qiT8Si7cKrjDfr931JP9-11" value="" style="endArrow=classic;html=1;rounded=0;exitX=1;exitY=0.5;exitDx=0;exitDy=0;entryX=0.053;entryY=0.275;entryDx=0;entryDy=0;entryPerimeter=0;" edge="1" parent="1" source="qiT8Si7cKrjDfr931JP9-3" target="qiT8Si7cKrjDfr931JP9-1">
          <mxGeometry width="50" height="50" relative="1" as="geometry">
            <mxPoint x="390" y="370" as="sourcePoint" />
            <mxPoint x="440" y="320" as="targetPoint" />
          </mxGeometry>
        </mxCell>
        <mxCell id="qiT8Si7cKrjDfr931JP9-12" value="Прибавление" style="text;html=1;strokeColor=none;fillColor=none;align=center;verticalAlign=middle;whiteSpace=wrap;rounded=0;" vertex="1" parent="1">
          <mxGeometry x="407" y="308" width="60" height="30" as="geometry" />
        </mxCell>
        <mxCell id="qiT8Si7cKrjDfr931JP9-13" value="else" style="text;html=1;strokeColor=none;fillColor=none;align=center;verticalAlign=middle;whiteSpace=wrap;rounded=0;" vertex="1" parent="1">
          <mxGeometry x="440" y="420" width="60" height="30" as="geometry" />
        </mxCell>
        <mxCell id="qiT8Si7cKrjDfr931JP9-14" value="x это null" style="text;html=1;strokeColor=none;fillColor=none;align=center;verticalAlign=middle;whiteSpace=wrap;rounded=0;" vertex="1" parent="1">
          <mxGeometry x="570" y="283" width="60" height="30" as="geometry" />
        </mxCell>
        <mxCell id="qiT8Si7cKrjDfr931JP9-17" value="" style="curved=1;endArrow=classic;html=1;rounded=0;entryX=0;entryY=0;entryDx=0;entryDy=0;exitX=1;exitY=0.5;exitDx=0;exitDy=0;" edge="1" parent="1" source="qiT8Si7cKrjDfr931JP9-1" target="qiT8Si7cKrjDfr931JP9-1">
          <mxGeometry width="50" height="50" relative="1" as="geometry">
            <mxPoint x="490" y="283" as="sourcePoint" />
            <mxPoint x="420" y="180" as="targetPoint" />
            <Array as="points">
              <mxPoint x="540" y="283" />
              <mxPoint x="490" y="233" />
              <mxPoint x="460" y="170" />
            </Array>
          </mxGeometry>
        </mxCell>
        <mxCell id="qiT8Si7cKrjDfr931JP9-18" value="x это цифра" style="text;html=1;strokeColor=none;fillColor=none;align=center;verticalAlign=middle;whiteSpace=wrap;rounded=0;" vertex="1" parent="1">
          <mxGeometry x="477" y="180" width="60" height="30" as="geometry" />
        </mxCell>
      </root>
    </mxGraphModel>
  </diagram>
</mxfile>
